<svg width="94" height="94" viewBox="0 0 94 94" fill="none" xmlns="http://www.w3.org/2000/svg">
<path d="M47 94C72.9574 94 94 72.9574 94 47C94 21.0426 72.9574 0 47 0C21.0426 0 0 21.0426 0 47C0 72.9574 21.0426 94 47 94Z" fill="url(#paint0_radial_50_10039)"/>
<path d="M47 74.2594C55.8255 74.2594 62.98 62.0547 62.98 46.9994C62.98 31.9442 55.8255 19.7394 47 19.7394C38.1744 19.7394 31.02 31.9442 31.02 46.9994C31.02 62.0547 38.1744 74.2594 47 74.2594Z" fill="white"/>
<path fill-rule="evenodd" clip-rule="evenodd" d="M17.0381 25.3802C12.2952 25.1359 6.58002 35.0602 6.58002 46.9958C6.58002 58.9314 12.2952 68.8557 17.0381 68.6114C21.7412 68.367 24.44 58.9314 24.44 46.9958C24.44 35.0602 21.7412 25.6246 17.0381 25.3802Z" fill="white"/>
<path fill-rule="evenodd" clip-rule="evenodd" d="M76.9619 68.6114C81.7047 68.8557 87.4199 58.9314 87.4199 46.9958C87.4199 35.0602 81.7047 25.1359 76.9619 25.3802C72.2588 25.6246 69.5599 35.0602 69.5599 46.9958C69.5599 58.9314 72.2588 68.367 76.9619 68.6114Z" fill="white"/>
<defs>
<radialGradient id="paint0_radial_50_10039" cx="0" cy="0" r="1" gradientUnits="userSpaceOnUse" gradientTransform="translate(47 33.84) rotate(90) scale(60.16 78.1112)">
<stop stop-color="#FF9A6F"/>
<stop offset="0.60999" stop-color="#FF6427"/>
<stop offset="1" stop-color="#EB581E"/>
</radialGradient>
</defs>
</svg>
