<svg width="100" height="100" viewBox="0 0 100 100" fill="none" xmlns="http://www.w3.org/2000/svg">
<mask id="mask0_21377_9814" style="mask-type:alpha" maskUnits="userSpaceOnUse" x="12" y="22" width="78" height="56">
<path d="M37.5262 25.1115C46.1229 21.0596 55.768 22.1281 62.4981 26.4225C75.2758 24.8787 85.7575 27.9249 88.8846 34.5596C93.6118 44.5897 79.7404 59.0209 58.8743 68.8556C38.0081 78.6904 18.0483 80.2044 13.3209 70.1743C10.3394 63.8483 14.13 54.4417 22.5707 45.8889C23.3122 37.7523 28.6826 29.2797 37.5262 25.1115Z" fill="#146CFD"/>
</mask>
<g mask="url(#mask0_21377_9814)">
<path d="M37.5262 25.1115C46.1229 21.0596 55.768 22.1281 62.4981 26.4225C75.2758 24.8787 85.7575 27.9249 88.8846 34.5596C93.6118 44.5897 79.7404 59.0209 58.8743 68.8556C38.0081 78.6904 18.0483 80.2044 13.3209 70.1743C10.3394 63.8483 14.13 54.4417 22.5707 45.8889C23.3122 37.7523 28.6826 29.2797 37.5262 25.1115Z" fill="#015DF8"/>
<g filter="url(#filter0_f_21377_9814)">
<path d="M89.8116 36.285C80.096 43.8066 30.714 51.4866 26.7466 64.9529C20.7505 85.3053 17.4 83.1509 24.6062 94.1198C4.22391 88.297 -4.13656 63.9413 12.9233 47.8183C20.197 42.4127 69.3081 19.6259 89.8116 36.285Z" fill="#003DA0"/>
</g>
<path d="M90.3199 37.3354C94.2521 45.6782 79.8204 59.0457 58.8947 68.9085C37.969 78.7714 18.4733 81.3947 14.5412 73.0518C10.609 64.709 23.7293 48.5593 44.655 38.6965C65.5807 28.8336 86.3877 28.9926 90.3199 37.3354Z" fill="#005EFA"/>
<g filter="url(#filter1_f_21377_9814)">
<path d="M72.8763 51.4136C74.6244 55.1225 67.5745 61.3641 57.4894 66.1174C47.4044 70.8708 38.1032 72.3359 36.3551 68.627C34.607 64.9181 41.074 57.4396 51.159 52.6863C61.244 47.933 71.1282 47.7047 72.8763 51.4136Z" fill="white" fill-opacity="0.73"/>
</g>
<path d="M72.4426 51.1527C74.1136 54.698 67.014 60.8342 56.929 65.5875C46.844 70.3409 37.5924 71.9113 35.9214 68.366C34.2504 64.8207 40.7927 57.5021 50.8778 52.7488C60.9628 47.9955 70.7716 47.6073 72.4426 51.1527Z" fill="white"/>
</g>
<defs>
<filter id="filter0_f_21377_9814" x="-5.32405" y="21.2189" width="104.211" height="81.9762" filterUnits="userSpaceOnUse" color-interpolation-filters="sRGB">
<feFlood flood-opacity="0" result="BackgroundImageFix"/>
<feBlend mode="normal" in="SourceGraphic" in2="BackgroundImageFix" result="shape"/>
<feGaussianBlur stdDeviation="4.53703" result="effect1_foregroundBlur_21377_9814"/>
</filter>
<filter id="filter1_f_21377_9814" x="32.2886" y="45.0698" width="44.6377" height="29.4307" filterUnits="userSpaceOnUse" color-interpolation-filters="sRGB">
<feFlood flood-opacity="0" result="BackgroundImageFix"/>
<feBlend mode="normal" in="SourceGraphic" in2="BackgroundImageFix" result="shape"/>
<feGaussianBlur stdDeviation="1.89088" result="effect1_foregroundBlur_21377_9814"/>
</filter>
</defs>
</svg>
