<svg width="1400" height="636" viewBox="0 0 1400 636" fill="none" xmlns="http://www.w3.org/2000/svg">
<rect width="1400" height="636" fill="white" style="fill:white;fill-opacity:1;"/>
<path d="M706.797 303.57H734.008V318.969H706.797V346.039H691.398V318.969H664.188V303.57H691.398V276.148H706.797V303.57Z" fill="black" style="fill:black;fill-opacity:1;"/>
<path fill-rule="evenodd" clip-rule="evenodd" d="M1106 248C1094.82 248 1085.42 240.351 1082.76 230H1055.25C1049.38 230 1044.38 234.241 1043.41 240.027L1042.43 245.946C1041.49 251.565 1038.65 256.455 1034.63 260C1038.65 263.545 1041.49 268.435 1042.43 274.054L1043.41 279.973C1044.38 285.759 1049.38 290 1055.25 290H1058.76C1061.42 279.649 1070.82 272 1082 272C1095.26 272 1106 282.745 1106 296C1106 309.255 1095.26 320 1082 320C1070.82 320 1061.42 312.351 1058.76 302H1055.25C1043.52 302 1033.5 293.518 1031.57 281.946L1030.59 276.027C1029.62 270.241 1024.62 266 1018.75 266H1009.24C1006.58 276.351 997.183 284 986 284C974.817 284 965.42 276.351 962.756 266H949.244C946.58 276.351 937.183 284 926 284C912.745 284 902 273.255 902 260C902 246.745 912.745 236 926 236C937.183 236 946.58 243.649 949.244 254H962.756C965.42 243.649 974.817 236 986 236C997.183 236 1006.58 243.649 1009.24 254H1018.75C1024.62 254 1029.62 249.759 1030.59 243.973L1031.57 238.054C1033.5 226.482 1043.52 218 1055.25 218H1082.76C1085.42 207.649 1094.82 200 1106 200C1119.26 200 1130 210.745 1130 224C1130 237.255 1119.26 248 1106 248ZM1106 236C1112.63 236 1118 230.627 1118 224C1118 217.373 1112.63 212 1106 212C1099.37 212 1094 217.373 1094 224C1094 230.627 1099.37 236 1106 236ZM926 272C932.627 272 938 266.627 938 260C938 253.373 932.627 248 926 248C919.373 248 914 253.373 914 260C914 266.627 919.373 272 926 272ZM998 260C998 266.627 992.627 272 986 272C979.373 272 974 266.627 974 260C974 253.373 979.373 248 986 248C992.627 248 998 253.373 998 260ZM1094 296C1094 302.627 1088.63 308 1082 308C1075.37 308 1070 302.627 1070 296C1070 289.373 1075.37 284 1082 284C1088.63 284 1094 289.373 1094 296Z" fill="#EA4B71" style="fill:#EA4B71;fill:color(display-p3 0.9176 0.2941 0.4431);fill-opacity:1;"/>
<path fill-rule="evenodd" clip-rule="evenodd" d="M1027.76 391.927V391.356C1031.95 389.259 1036.13 385.637 1036.13 378.489C1036.13 368.195 1027.66 362 1015.96 362C1003.97 362 995.405 368.576 995.405 378.679C995.405 385.542 999.401 389.259 1003.78 391.356V391.927C998.926 393.643 993.121 398.79 993.121 407.368C993.121 417.756 1001.69 425 1015.86 425C1030.04 425 1038.32 417.756 1038.32 407.368C1038.32 398.79 1032.61 393.738 1027.76 391.927ZM1015.86 370.769C1020.62 370.769 1024.14 373.818 1024.14 378.965C1024.14 384.112 1020.53 387.162 1015.86 387.162C1011.2 387.162 1007.3 384.112 1007.3 378.965C1007.3 373.723 1011.01 370.769 1015.86 370.769ZM1015.86 415.85C1010.34 415.85 1005.87 412.324 1005.87 406.319C1005.87 400.887 1009.58 396.788 1015.77 396.788C1021.86 396.788 1025.57 400.791 1025.57 406.51C1025.57 412.324 1021.29 415.85 1015.86 415.85Z" fill="#101330" style="fill:#101330;fill:color(display-p3 0.0627 0.0745 0.1882);fill-opacity:1;"/>
<path d="M1053 424.047H1065.18V398.218C1065.18 389.735 1070.32 386.018 1076.12 386.018C1081.83 386.018 1086.3 389.831 1086.3 397.646V424.047H1098.48V395.168C1098.48 382.682 1091.25 375.439 1079.93 375.439C1072.79 375.439 1068.8 378.298 1065.94 382.015H1065.18L1064.13 376.392H1053V424.047Z" fill="#101330" style="fill:#101330;fill:color(display-p3 0.0627 0.0745 0.1882);fill-opacity:1;"/>
<path d="M945.18 424.047H933V376.392H944.133L945.18 382.015H945.941C948.796 378.298 952.793 375.439 959.93 375.439C971.253 375.439 978.485 382.682 978.485 395.168V424.047H966.305V397.646C966.305 389.831 961.833 386.018 956.123 386.018C950.319 386.018 945.18 389.735 945.18 398.218V424.047Z" fill="#101330" style="fill:#101330;fill:color(display-p3 0.0627 0.0745 0.1882);fill-opacity:1;"/>
<g clip-path="url(#clip0_1433_2317)">
<path d="M383 425C453.692 425 511 367.692 511 297C511 226.308 453.692 169 383 169C312.308 169 255 226.308 255 297C255 367.692 312.308 425 383 425Z" fill="url(#paint0_radial_1433_2317)" style=""/>
<path d="M383 371.238C407.036 371.238 426.52 338 426.52 296.998C426.52 255.997 407.036 222.758 383 222.758C358.965 222.758 339.48 255.997 339.48 296.998C339.48 338 358.965 371.238 383 371.238Z" fill="white" style="fill:white;fill-opacity:1;"/>
<path fill-rule="evenodd" clip-rule="evenodd" d="M301.401 238.12C288.485 237.455 272.92 264.483 272.92 296.988C272.92 329.494 288.485 356.522 301.401 355.856C314.21 355.191 321.56 329.494 321.56 296.988C321.56 264.483 314.21 238.786 301.401 238.12Z" fill="white" style="fill:white;fill-opacity:1;"/>
<path fill-rule="evenodd" clip-rule="evenodd" d="M464.598 355.856C477.515 356.522 493.079 329.494 493.079 296.988C493.079 264.483 477.515 237.455 464.598 238.12C451.79 238.786 444.439 264.483 444.439 296.988C444.439 329.494 451.79 355.191 464.598 355.856Z" fill="white" style="fill:white;fill-opacity:1;"/>
</g>
<defs>
<radialGradient id="paint0_radial_1433_2317" cx="0" cy="0" r="1" gradientUnits="userSpaceOnUse" gradientTransform="translate(383 261.16) rotate(90) scale(163.84 212.728)">
<stop stop-color="#FF9A6F" style="stop-color:#FF9A6F;stop-color:color(display-p3 1.0000 0.6039 0.4353);stop-opacity:1;"/>
<stop offset="0.60999" stop-color="#FF6427" style="stop-color:#FF6427;stop-color:color(display-p3 1.0000 0.3922 0.1529);stop-opacity:1;"/>
<stop offset="1" stop-color="#EB581E" style="stop-color:#EB581E;stop-color:color(display-p3 0.9216 0.3451 0.1176);stop-opacity:1;"/>
</radialGradient>
<clipPath id="clip0_1433_2317">
<rect width="256" height="256" fill="white" style="fill:white;fill-opacity:1;" transform="translate(255 169)"/>
</clipPath>
</defs>
</svg>
